<?xml version="1.0" encoding="UTF-8" standalone="no"?>
<?xml-stylesheet href="common/css/sf.css" type="text/css"?>
<!DOCTYPE svg PUBLIC "-//W3C//DTD SVG 1.1//EN"
 "http://www.w3.org/Graphics/SVG/1.1/DTD/svg11.dtd">
<!-- Generated by graphviz version 14.1.5 (0)
 -->
<!-- Pages: 1 -->
<svg width="518pt" height="688pt"
 viewBox="0.00 22.00 518.00 667.00" xmlns="http://www.w3.org/2000/svg" xmlns:xlink="http://www.w3.org/1999/xlink">
<g id="graph0" class="graph deps" transform="scale(1 1) rotate(0) translate(4 662.55)">
<polygon fill="white" stroke="none" points="-4,4 -4,-640.95 513.75,-640.95 513.75,4 -4,4"/>
<!-- LogicalFoundations -->
<g id="node1" class="node">
<title>LogicalFoundations</title>
<g id="a_node1"><a xlink:title="Go to chapter" target="_top">
<polygon fill="none" stroke="black" stroke-dasharray="1,5" points="218.3,-611.48 52.5,-611.48 52.5,-575.48 218.3,-575.48 218.3,-611.48"/>
<text xml:space="preserve" text-anchor="start" x="70.9" y="-589.73" font-family="Times,serif" font-size="11.00"> &#160;&#160;&#160;&#160;Logical Foundations &#160;&#160;&#160;&#160;&#160;&#160;&#160;</text>
</a>
</g>
</g>
<!-- Preface -->
<g id="node3" class="node">
<title>Preface</title>
<g id="a_node3"><a xlink:href="Preface.html" xlink:title="Go to chapter" target="_top">
<polygon fill="lightblue" stroke="black" points="167.05,-514 103.75,-514 103.75,-478 167.05,-478 167.05,-514"/>
<text xml:space="preserve" text-anchor="middle" x="135.4" y="-492.3" font-family="Times,serif" font-size="11.00">Preface</text>
</a>
</g>
</g>
<!-- LogicalFoundations&#45;&gt;Preface -->
<g id="edge1" class="edge">
<title>LogicalFoundations&#45;&gt;Preface</title>
<path fill="none" stroke="gray" d="M130.08,-575.41C128.55,-561.51 128.25,-541.6 129.17,-525.32"/>
<polygon fill="gray" stroke="gray" points="132.63,-526 129.94,-515.75 125.65,-525.44 132.63,-526"/>
</g>
<!-- LogicalFoundations&#45;&gt;Preface -->
<g id="edge8" class="edge">
<title>LogicalFoundations&#45;&gt;Preface</title>
<path fill="none" stroke="blue" d="M140.72,-575.41C142.25,-561.51 142.55,-541.6 141.63,-525.32"/>
<polygon fill="blue" stroke="blue" points="145.15,-525.44 140.86,-515.75 138.17,-526 145.15,-525.44"/>
</g>
<!-- legend -->
<g id="node2" class="node">
<title>legend</title>
<g id="a_node2"><a xlink:title="Go to chapter" target="_top">
<polygon fill="WhiteSmoke" stroke="none" points="509.75,-636.95 303.05,-636.95 303.05,-550 509.75,-550 509.75,-636.95"/>
<polygon fill="lightblue" stroke="none" points="306.65,-600.1 306.65,-633.35 388.65,-633.35 388.65,-600.1 306.65,-600.1"/>
<polygon fill="none" stroke="#7f7f7f" points="306.65,-600.1 306.65,-633.35 388.65,-633.35 388.65,-600.1 306.65,-600.1"/>
<text xml:space="preserve" text-anchor="start" x="317.65" y="-613.35" font-family="Times,serif" font-size="10.00"> Core chapters </text>
<polygon fill="lightyellow" stroke="none" points="398.65,-600.1 398.65,-633.35 506.15,-633.35 506.15,-600.1 398.65,-600.1"/>
<polygon fill="none" stroke="#7f7f7f" points="398.65,-600.1 398.65,-633.35 506.15,-633.35 506.15,-600.1 398.65,-600.1"/>
<text xml:space="preserve" text-anchor="start" x="409.65" y="-613.35" font-family="Times,serif" font-size="10.00">Contributed chapters</text>
<text xml:space="preserve" text-anchor="start" x="311.65" y="-582.6" font-family="Times,serif" font-size="10.00" fill="gray">⟶</text>
<text xml:space="preserve" text-anchor="start" x="325.15" y="-582.6" font-family="Times,serif" font-size="10.00"> &#160;&#160;&#160;&#160;Chapter dependencies</text>
<text xml:space="preserve" text-anchor="start" x="311.65" y="-561.35" font-family="Times,serif" font-size="10.00" fill="blue">⟶</text>
<text xml:space="preserve" text-anchor="start" x="325.15" y="-561.35" font-family="Times,serif" font-size="10.00"> &#160;&#160;&#160;&#160;Recommended path for semester course</text>
</a>
</g>
</g>
<!-- Noninterference1 -->
<g id="node6" class="node">
<title>Noninterference1</title>
<g id="a_node6"><a xlink:href="Noninterference1.html" xlink:title="Go to chapter" target="_top">
<polygon fill="lightblue" stroke="black" points="270.8,-442 0,-442 0,-396.8 270.8,-396.8 270.8,-442"/>
<text xml:space="preserve" text-anchor="start" x="96.4" y="-423.9" font-family="Times,serif" font-size="11.00">Noninterference1</text>
<text xml:space="preserve" text-anchor="start" x="18.4" y="-406.65" font-family="Times,serif" font-size="9.00">Defining Secrecy and Secure Multi&#45;Execution for Rocq Functions</text>
</a>
</g>
</g>
<!-- Preface&#45;&gt;Noninterference1 -->
<g id="edge2" class="edge">
<title>Preface&#45;&gt;Noninterference1</title>
<path fill="none" stroke="gray" d="M129.6,-477.7C128.85,-470.56 128.54,-462.03 128.68,-453.77"/>
<polygon fill="gray" stroke="gray" points="132.17,-454.09 129.11,-443.94 125.18,-453.78 132.17,-454.09"/>
</g>
<!-- Preface&#45;&gt;Noninterference1 -->
<g id="edge9" class="edge">
<title>Preface&#45;&gt;Noninterference1</title>
<path fill="none" stroke="blue" d="M141.2,-477.7C141.95,-470.56 142.26,-462.03 142.12,-453.77"/>
<polygon fill="blue" stroke="blue" points="145.62,-453.78 141.69,-443.94 138.63,-454.09 145.62,-453.78"/>
</g>
<!-- Postscript -->
<g id="node4" class="node">
<title>Postscript</title>
<g id="a_node4"><a xlink:href="Postscript.html" xlink:title="Go to chapter" target="_top">
<polygon fill="lightblue" stroke="black" points="171.55,-117.2 99.25,-117.2 99.25,-81.2 171.55,-81.2 171.55,-117.2"/>
<text xml:space="preserve" text-anchor="middle" x="135.4" y="-95.5" font-family="Times,serif" font-size="11.00">Postscript</text>
</a>
</g>
</g>
<!-- Bib -->
<g id="node5" class="node">
<title>Bib</title>
<g id="a_node5"><a xlink:href="Bib.html" xlink:title="Go to chapter" target="_top">
<polygon fill="lightblue" stroke="black" points="177.05,-45.2 93.75,-45.2 93.75,0 177.05,0 177.05,-45.2"/>
<text xml:space="preserve" text-anchor="start" x="127.53" y="-27.1" font-family="Times,serif" font-size="11.00">Bib</text>
<text xml:space="preserve" text-anchor="start" x="112.15" y="-9.85" font-family="Times,serif" font-size="9.00">Bibliography</text>
</a>
</g>
</g>
<!-- Postscript&#45;&gt;Bib -->
<g id="edge7" class="edge">
<title>Postscript&#45;&gt;Bib</title>
<path fill="none" stroke="gray" d="M129.6,-80.9C128.85,-73.76 128.54,-65.23 128.68,-56.97"/>
<polygon fill="gray" stroke="gray" points="132.17,-57.29 129.11,-47.14 125.18,-56.98 132.17,-57.29"/>
</g>
<!-- Postscript&#45;&gt;Bib -->
<g id="edge14" class="edge">
<title>Postscript&#45;&gt;Bib</title>
<path fill="none" stroke="blue" d="M141.2,-80.9C141.95,-73.76 142.26,-65.23 142.12,-56.97"/>
<polygon fill="blue" stroke="blue" points="145.62,-56.98 141.69,-47.14 138.63,-57.29 145.62,-56.98"/>
</g>
<!-- Noninterference -->
<g id="node7" class="node">
<title>Noninterference</title>
<g id="a_node7"><a xlink:href="Noninterference.html" xlink:title="Go to chapter" target="_top">
<polygon fill="lightblue" stroke="black" points="262.93,-360.8 7.88,-360.8 7.88,-315.6 262.93,-315.6 262.93,-360.8"/>
<text xml:space="preserve" text-anchor="start" x="99.03" y="-342.7" font-family="Times,serif" font-size="11.00">Noninterference</text>
<text xml:space="preserve" text-anchor="start" x="26.28" y="-325.45" font-family="Times,serif" font-size="9.00">Secrecy and Secure Multi&#45;Execution for Imperative Programs</text>
</a>
</g>
</g>
<!-- Noninterference1&#45;&gt;Noninterference -->
<g id="edge3" class="edge">
<title>Noninterference1&#45;&gt;Noninterference</title>
<path fill="none" stroke="gray" d="M129.28,-396.34C128.71,-388.96 128.53,-380.56 128.73,-372.51"/>
<polygon fill="gray" stroke="gray" points="132.22,-372.81 129.21,-362.66 125.22,-372.47 132.22,-372.81"/>
</g>
<!-- Noninterference1&#45;&gt;Noninterference -->
<g id="edge10" class="edge">
<title>Noninterference1&#45;&gt;Noninterference</title>
<path fill="none" stroke="blue" d="M141.52,-396.34C142.09,-388.96 142.27,-380.56 142.07,-372.51"/>
<polygon fill="blue" stroke="blue" points="145.58,-372.47 141.59,-362.66 138.58,-372.81 145.58,-372.47"/>
</g>
<!-- StaticIFC -->
<g id="node8" class="node">
<title>StaticIFC</title>
<g id="a_node8"><a xlink:href="StaticIFC.html" xlink:title="Go to chapter" target="_top">
<polygon fill="lightblue" stroke="black" points="226.18,-279.6 44.62,-279.6 44.62,-234.4 226.18,-234.4 226.18,-279.6"/>
<text xml:space="preserve" text-anchor="start" x="114.03" y="-261.5" font-family="Times,serif" font-size="11.00">StaticIFC</text>
<text xml:space="preserve" text-anchor="start" x="63.03" y="-244.25" font-family="Times,serif" font-size="9.00">Information Flow Control Type Systems</text>
</a>
</g>
</g>
<!-- Noninterference&#45;&gt;StaticIFC -->
<g id="edge4" class="edge">
<title>Noninterference&#45;&gt;StaticIFC</title>
<path fill="none" stroke="gray" d="M129.28,-315.14C128.71,-307.76 128.53,-299.36 128.73,-291.31"/>
<polygon fill="gray" stroke="gray" points="132.22,-291.61 129.21,-281.46 125.22,-291.27 132.22,-291.61"/>
</g>
<!-- Noninterference&#45;&gt;StaticIFC -->
<g id="edge11" class="edge">
<title>Noninterference&#45;&gt;StaticIFC</title>
<path fill="none" stroke="blue" d="M141.52,-315.14C142.09,-307.76 142.27,-299.36 142.07,-291.31"/>
<polygon fill="blue" stroke="blue" points="145.58,-291.27 141.59,-281.46 138.58,-291.61 145.58,-291.27"/>
</g>
<!-- SpecCT -->
<g id="node9" class="node">
<title>SpecCT</title>
<g id="a_node9"><a xlink:href="SpecCT.html" xlink:title="Go to chapter" target="_top">
<polygon fill="lightblue" stroke="black" points="235.55,-198.4 35.25,-198.4 35.25,-153.2 235.55,-153.2 235.55,-198.4"/>
<text xml:space="preserve" text-anchor="start" x="117.4" y="-180.3" font-family="Times,serif" font-size="11.00">SpecCT</text>
<text xml:space="preserve" text-anchor="start" x="53.65" y="-163.05" font-family="Times,serif" font-size="9.00">Cryptographic and Speculative Constant&#45;Time</text>
</a>
</g>
</g>
<!-- StaticIFC&#45;&gt;SpecCT -->
<g id="edge5" class="edge">
<title>StaticIFC&#45;&gt;SpecCT</title>
<path fill="none" stroke="gray" d="M129.28,-233.94C128.71,-226.56 128.53,-218.16 128.73,-210.11"/>
<polygon fill="gray" stroke="gray" points="132.22,-210.41 129.21,-200.26 125.22,-210.07 132.22,-210.41"/>
</g>
<!-- StaticIFC&#45;&gt;SpecCT -->
<g id="edge12" class="edge">
<title>StaticIFC&#45;&gt;SpecCT</title>
<path fill="none" stroke="blue" d="M141.52,-233.94C142.09,-226.56 142.27,-218.16 142.07,-210.11"/>
<polygon fill="blue" stroke="blue" points="145.58,-210.07 141.59,-200.26 138.58,-210.41 145.58,-210.07"/>
</g>
<!-- SpecCT&#45;&gt;Postscript -->
<g id="edge6" class="edge">
<title>SpecCT&#45;&gt;Postscript</title>
<path fill="none" stroke="gray" d="M129.18,-152.82C128.63,-145.29 128.51,-136.74 128.82,-128.76"/>
<polygon fill="gray" stroke="gray" points="132.31,-129.02 129.52,-118.8 125.32,-128.53 132.31,-129.02"/>
</g>
<!-- SpecCT&#45;&gt;Postscript -->
<g id="edge13" class="edge">
<title>SpecCT&#45;&gt;Postscript</title>
<path fill="none" stroke="blue" d="M141.62,-152.82C142.17,-145.29 142.29,-136.74 141.98,-128.76"/>
<polygon fill="blue" stroke="blue" points="145.48,-128.53 141.28,-118.8 138.49,-129.02 145.48,-128.53"/>
</g>
</g>
</svg>
