<?xml version="1.0" encoding="UTF-8" standalone="no"?>
<?xml-stylesheet href="common/css/sf.css" type="text/css"?>
<!DOCTYPE svg PUBLIC "-//W3C//DTD SVG 1.1//EN"
 "http://www.w3.org/Graphics/SVG/1.1/DTD/svg11.dtd">
<!-- Generated by graphviz version 14.1.1 (20251213.1925)
 -->
<!-- Pages: 1 -->
<svg width="504pt" height="1034pt"
 viewBox="0.00 22.00 504.00 1013.00" xmlns="http://www.w3.org/2000/svg" xmlns:xlink="http://www.w3.org/1999/xlink">
<g id="graph0" class="graph deps" transform="scale(0.926811 0.926811) rotate(0) translate(4 1088.66)">
<polygon fill="white" stroke="none" points="-4,4 -4,-1065.35 539.8,-1065.35 539.8,4 -4,4"/>
<!-- legend -->
<g id="node1" class="node">
<title>legend</title>
<g id="a_node1"><a xlink:title="Go to chapter" target="_top">
<polygon fill="WhiteSmoke" stroke="none" points="221.38,-1061.35 14.68,-1061.35 14.68,-974.4 221.38,-974.4 221.38,-1061.35"/>
<polygon fill="lightblue" stroke="none" points="18.28,-1024.5 18.28,-1057.75 100.28,-1057.75 100.28,-1024.5 18.28,-1024.5"/>
<polygon fill="none" stroke="#7f7f7f" points="18.28,-1024.5 18.28,-1057.75 100.28,-1057.75 100.28,-1024.5 18.28,-1024.5"/>
<text xml:space="preserve" text-anchor="start" x="29.28" y="-1037.25" font-family="Times,serif" font-size="10.00"> Core chapters </text>
<polygon fill="lightyellow" stroke="none" points="110.28,-1024.5 110.28,-1057.75 217.78,-1057.75 217.78,-1024.5 110.28,-1024.5"/>
<polygon fill="none" stroke="#7f7f7f" points="110.28,-1024.5 110.28,-1057.75 217.78,-1057.75 217.78,-1024.5 110.28,-1024.5"/>
<text xml:space="preserve" text-anchor="start" x="121.28" y="-1037.25" font-family="Times,serif" font-size="10.00">Contributed chapters</text>
<text xml:space="preserve" text-anchor="start" x="23.28" y="-1007" font-family="Times,serif" font-size="10.00" fill="gray">⟶</text>
<text xml:space="preserve" text-anchor="start" x="33.78" y="-1007" font-family="Times,serif" font-size="10.00"> &#160;&#160;&#160;&#160;Chapter dependencies</text>
<text xml:space="preserve" text-anchor="start" x="23.28" y="-985.75" font-family="Times,serif" font-size="10.00" fill="blue">⟶</text>
<text xml:space="preserve" text-anchor="start" x="33.78" y="-985.75" font-family="Times,serif" font-size="10.00"> &#160;&#160;&#160;&#160;Recommended path for semester course</text>
</a>
</g>
</g>
<!-- Preface -->
<g id="node2" class="node">
<title>Preface</title>
<g id="a_node2"><a xlink:href="Preface.html" xlink:title="Go to chapter" target="_top">
<polygon fill="lightblue" stroke="black" points="316.67,-1035.88 253.37,-1035.88 253.37,-999.88 316.67,-999.88 316.67,-1035.88"/>
<text xml:space="preserve" text-anchor="middle" x="285.02" y="-1014.18" font-family="Times,serif" font-size="11.00">Preface</text>
</a>
</g>
</g>
<!-- Basics -->
<g id="node4" class="node">
<title>Basics</title>
<g id="a_node4"><a xlink:href="Basics.html" xlink:title="Go to chapter" target="_top">
<polygon fill="lightblue" stroke="black" points="362.67,-938.4 207.37,-938.4 207.37,-893.2 362.67,-893.2 362.67,-938.4"/>
<text xml:space="preserve" text-anchor="start" x="270.02" y="-920.35" font-family="Times,serif" font-size="11.00">Basics</text>
<text xml:space="preserve" text-anchor="start" x="225.77" y="-902.75" font-family="Times,serif" font-size="9.00">Functional Programming in Rocq</text>
</a>
</g>
</g>
<!-- Preface&#45;&gt;Basics -->
<g id="edge19" class="edge">
<title>Preface&#45;&gt;Basics</title>
<path fill="none" stroke="blue" d="M285.02,-999.44C285.02,-985.83 285.02,-966.53 285.02,-949.99"/>
<polygon fill="blue" stroke="blue" points="288.53,-950.08 285.03,-940.08 281.53,-950.08 288.53,-950.08"/>
</g>
<!-- Postscript -->
<g id="node3" class="node">
<title>Postscript</title>
<g id="a_node3"><a xlink:href="Postscript.html" xlink:title="Go to chapter" target="_top">
<polygon fill="lightblue" stroke="black" points="408.17,-121.8 335.88,-121.8 335.88,-85.8 408.17,-85.8 408.17,-121.8"/>
<text xml:space="preserve" text-anchor="middle" x="372.02" y="-100.1" font-family="Times,serif" font-size="11.00">Postscript</text>
</a>
</g>
</g>
<!-- Bib -->
<g id="node19" class="node">
<title>Bib</title>
<g id="a_node19"><a xlink:href="Bib.html" xlink:title="Go to chapter" target="_top">
<polygon fill="lightblue" stroke="black" points="413.67,-45.2 330.38,-45.2 330.38,0 413.67,0 413.67,-45.2"/>
<text xml:space="preserve" text-anchor="start" x="364.15" y="-27.15" font-family="Times,serif" font-size="11.00">Bib</text>
<text xml:space="preserve" text-anchor="start" x="348.77" y="-9.55" font-family="Times,serif" font-size="9.00">Bibliography</text>
</a>
</g>
</g>
<!-- Postscript&#45;&gt;Bib -->
<g id="edge15" class="edge">
<title>Postscript&#45;&gt;Bib</title>
<path fill="none" stroke="gray" d="M372.02,-85.61C372.02,-77.18 372.02,-66.72 372.02,-56.81"/>
<polygon fill="gray" stroke="gray" points="375.53,-57.09 372.03,-47.09 368.53,-57.09 375.53,-57.09"/>
</g>
<!-- Induction -->
<g id="node5" class="node">
<title>Induction</title>
<g id="a_node5"><a xlink:href="Induction.html" xlink:title="Go to chapter" target="_top">
<polygon fill="lightblue" stroke="black" points="337.17,-857.2 232.87,-857.2 232.87,-812 337.17,-812 337.17,-857.2"/>
<text xml:space="preserve" text-anchor="start" x="264.4" y="-839.15" font-family="Times,serif" font-size="11.00">Induction</text>
<text xml:space="preserve" text-anchor="start" x="251.27" y="-821.55" font-family="Times,serif" font-size="9.00">Proof by Induction</text>
</a>
</g>
</g>
<!-- Basics&#45;&gt;Induction -->
<g id="edge1" class="edge">
<title>Basics&#45;&gt;Induction</title>
<path fill="none" stroke="gray" d="M278.9,-892.74C278.34,-885.36 278.15,-876.96 278.35,-868.91"/>
<polygon fill="gray" stroke="gray" points="281.84,-869.21 278.84,-859.06 274.85,-868.87 281.84,-869.21"/>
</g>
<!-- Basics&#45;&gt;Induction -->
<g id="edge20" class="edge">
<title>Basics&#45;&gt;Induction</title>
<path fill="none" stroke="blue" d="M291.15,-892.74C291.71,-885.36 291.9,-876.96 291.7,-868.91"/>
<polygon fill="blue" stroke="blue" points="295.2,-868.87 291.21,-859.06 288.21,-869.21 295.2,-868.87"/>
</g>
<!-- Lists -->
<g id="node6" class="node">
<title>Lists</title>
<g id="a_node6"><a xlink:href="Lists.html" xlink:title="Go to chapter" target="_top">
<polygon fill="lightblue" stroke="black" points="357.05,-776 213,-776 213,-730.8 357.05,-730.8 357.05,-776"/>
<text xml:space="preserve" text-anchor="start" x="274.15" y="-757.95" font-family="Times,serif" font-size="11.00">Lists</text>
<text xml:space="preserve" text-anchor="start" x="231.4" y="-740.35" font-family="Times,serif" font-size="9.00">Working with Structured Data</text>
</a>
</g>
</g>
<!-- Induction&#45;&gt;Lists -->
<g id="edge2" class="edge">
<title>Induction&#45;&gt;Lists</title>
<path fill="none" stroke="gray" d="M278.9,-811.54C278.34,-804.16 278.15,-795.76 278.35,-787.71"/>
<polygon fill="gray" stroke="gray" points="281.84,-788.01 278.84,-777.86 274.85,-787.67 281.84,-788.01"/>
</g>
<!-- Induction&#45;&gt;Lists -->
<g id="edge21" class="edge">
<title>Induction&#45;&gt;Lists</title>
<path fill="none" stroke="blue" d="M291.15,-811.54C291.71,-804.16 291.9,-795.76 291.7,-787.71"/>
<polygon fill="blue" stroke="blue" points="295.2,-787.67 291.21,-777.86 288.21,-788.01 295.2,-787.67"/>
</g>
<!-- Poly -->
<g id="node7" class="node">
<title>Poly</title>
<g id="a_node7"><a xlink:href="Poly.html" xlink:title="Go to chapter" target="_top">
<polygon fill="lightblue" stroke="black" points="381.42,-694.8 188.62,-694.8 188.62,-649.6 381.42,-649.6 381.42,-694.8"/>
<text xml:space="preserve" text-anchor="start" x="275.27" y="-676.75" font-family="Times,serif" font-size="11.00">Poly</text>
<text xml:space="preserve" text-anchor="start" x="207.02" y="-659.15" font-family="Times,serif" font-size="9.00">Polymorphism and Higher&#45;Order Functions</text>
</a>
</g>
</g>
<!-- Lists&#45;&gt;Poly -->
<g id="edge3" class="edge">
<title>Lists&#45;&gt;Poly</title>
<path fill="none" stroke="gray" d="M278.9,-730.34C278.34,-722.96 278.15,-714.56 278.35,-706.51"/>
<polygon fill="gray" stroke="gray" points="281.84,-706.81 278.84,-696.66 274.85,-706.47 281.84,-706.81"/>
</g>
<!-- Lists&#45;&gt;Poly -->
<g id="edge22" class="edge">
<title>Lists&#45;&gt;Poly</title>
<path fill="none" stroke="blue" d="M291.15,-730.34C291.71,-722.96 291.9,-714.56 291.7,-706.51"/>
<polygon fill="blue" stroke="blue" points="295.2,-706.47 291.21,-696.66 288.21,-706.81 295.2,-706.47"/>
</g>
<!-- Tactics -->
<g id="node8" class="node">
<title>Tactics</title>
<g id="a_node8"><a xlink:href="Tactics.html" xlink:title="Go to chapter" target="_top">
<polygon fill="lightblue" stroke="black" points="337.55,-613.6 232.5,-613.6 232.5,-568.4 337.55,-568.4 337.55,-613.6"/>
<text xml:space="preserve" text-anchor="start" x="269.27" y="-595.55" font-family="Times,serif" font-size="11.00">Tactics</text>
<text xml:space="preserve" text-anchor="start" x="250.9" y="-577.95" font-family="Times,serif" font-size="9.00">More Basic Tactics</text>
</a>
</g>
</g>
<!-- Poly&#45;&gt;Tactics -->
<g id="edge4" class="edge">
<title>Poly&#45;&gt;Tactics</title>
<path fill="none" stroke="gray" d="M278.9,-649.14C278.34,-641.76 278.15,-633.36 278.35,-625.31"/>
<polygon fill="gray" stroke="gray" points="281.84,-625.61 278.84,-615.46 274.85,-625.27 281.84,-625.61"/>
</g>
<!-- Poly&#45;&gt;Tactics -->
<g id="edge23" class="edge">
<title>Poly&#45;&gt;Tactics</title>
<path fill="none" stroke="blue" d="M291.15,-649.14C291.71,-641.76 291.9,-633.36 291.7,-625.31"/>
<polygon fill="blue" stroke="blue" points="295.2,-625.27 291.21,-615.46 288.21,-625.61 295.2,-625.27"/>
</g>
<!-- Logic -->
<g id="node10" class="node">
<title>Logic</title>
<g id="a_node10"><a xlink:href="Logic.html" xlink:title="Go to chapter" target="_top">
<polygon fill="lightblue" stroke="black" points="328.55,-532.4 241.5,-532.4 241.5,-487.2 328.55,-487.2 328.55,-532.4"/>
<text xml:space="preserve" text-anchor="start" x="272.27" y="-514.35" font-family="Times,serif" font-size="11.00">Logic</text>
<text xml:space="preserve" text-anchor="start" x="259.9" y="-496.75" font-family="Times,serif" font-size="9.00">Logic in Rocq</text>
</a>
</g>
</g>
<!-- Tactics&#45;&gt;Logic -->
<g id="edge5" class="edge">
<title>Tactics&#45;&gt;Logic</title>
<path fill="none" stroke="gray" d="M278.9,-567.94C278.34,-560.56 278.15,-552.16 278.35,-544.11"/>
<polygon fill="gray" stroke="gray" points="281.84,-544.41 278.84,-534.26 274.85,-544.07 281.84,-544.41"/>
</g>
<!-- Tactics&#45;&gt;Logic -->
<g id="edge24" class="edge">
<title>Tactics&#45;&gt;Logic</title>
<path fill="none" stroke="blue" d="M291.15,-567.94C291.71,-560.56 291.9,-552.16 291.7,-544.11"/>
<polygon fill="blue" stroke="blue" points="295.2,-544.07 291.21,-534.26 288.21,-544.41 295.2,-544.07"/>
</g>
<!-- IndProp -->
<g id="node9" class="node">
<title>IndProp</title>
<g id="a_node9"><a xlink:href="IndProp.html" xlink:title="Go to chapter" target="_top">
<polygon fill="lightblue" stroke="black" points="362.3,-451.2 207.75,-451.2 207.75,-406 362.3,-406 362.3,-451.2"/>
<text xml:space="preserve" text-anchor="start" x="267.77" y="-433.15" font-family="Times,serif" font-size="11.00">IndProp</text>
<text xml:space="preserve" text-anchor="start" x="226.15" y="-415.55" font-family="Times,serif" font-size="9.00">Inductively Defined Propositions</text>
</a>
</g>
</g>
<!-- Maps -->
<g id="node11" class="node">
<title>Maps</title>
<g id="a_node11"><a xlink:href="Maps.html" xlink:title="Go to chapter" target="_top">
<polygon fill="lightblue" stroke="black" points="155.55,-370 38.5,-370 38.5,-324.8 155.55,-324.8 155.55,-370"/>
<text xml:space="preserve" text-anchor="start" x="84.65" y="-351.95" font-family="Times,serif" font-size="11.00">Maps</text>
<text xml:space="preserve" text-anchor="start" x="56.9" y="-334.35" font-family="Times,serif" font-size="9.00">Total and Partial Maps</text>
</a>
</g>
</g>
<!-- IndProp&#45;&gt;Maps -->
<g id="edge7" class="edge">
<title>IndProp&#45;&gt;Maps</title>
<path fill="none" stroke="gray" d="M226.53,-405.54C203.29,-396.05 176.68,-384.88 153.63,-374.95"/>
<polygon fill="gray" stroke="gray" points="155.27,-371.84 144.7,-371.08 152.49,-378.27 155.27,-371.84"/>
</g>
<!-- IndProp&#45;&gt;Maps -->
<g id="edge26" class="edge">
<title>IndProp&#45;&gt;Maps</title>
<path fill="none" stroke="blue" d="M238.78,-405.54C216.89,-396.01 190.33,-384.78 166.13,-374.81"/>
<polygon fill="blue" stroke="blue" points="167.54,-371.61 156.96,-371.05 164.89,-378.09 167.54,-371.61"/>
</g>
<!-- ProofObjects -->
<g id="node12" class="node">
<title>ProofObjects</title>
<g id="a_node12"><a xlink:href="ProofObjects.html" xlink:title="Go to chapter" target="_top">
<polygon fill="lightblue" stroke="black" points="367.92,-370 202.12,-370 202.12,-324.8 367.92,-324.8 367.92,-370"/>
<text xml:space="preserve" text-anchor="start" x="255.77" y="-351.95" font-family="Times,serif" font-size="11.00">ProofObjects</text>
<text xml:space="preserve" text-anchor="start" x="220.52" y="-334.35" font-family="Times,serif" font-size="9.00">The Curry&#45;Howard Correspondence</text>
</a>
</g>
</g>
<!-- IndProp&#45;&gt;ProofObjects -->
<g id="edge9" class="edge">
<title>IndProp&#45;&gt;ProofObjects</title>
<path fill="none" stroke="gray" d="M285.02,-405.54C285.02,-398.16 285.02,-389.76 285.02,-381.71"/>
<polygon fill="gray" stroke="gray" points="288.53,-381.86 285.03,-371.86 281.53,-381.86 288.53,-381.86"/>
</g>
<!-- Rel -->
<g id="node18" class="node">
<title>Rel</title>
<g id="a_node18"><a xlink:href="Rel.html" xlink:title="Go to chapter" target="_top">
<polygon fill="lightblue" stroke="black" points="503.92,-370 386.12,-370 386.12,-324.8 503.92,-324.8 503.92,-370"/>
<text xml:space="preserve" text-anchor="start" x="437.15" y="-351.95" font-family="Times,serif" font-size="11.00">Rel</text>
<text xml:space="preserve" text-anchor="start" x="404.52" y="-334.35" font-family="Times,serif" font-size="9.00">Properties of Relations</text>
</a>
</g>
</g>
<!-- IndProp&#45;&gt;Rel -->
<g id="edge12" class="edge">
<title>IndProp&#45;&gt;Rel</title>
<path fill="none" stroke="gray" d="M329.59,-405.54C348.41,-396.22 370.51,-385.28 390.31,-375.49"/>
<polygon fill="gray" stroke="gray" points="391.65,-378.73 399.06,-371.15 388.55,-372.45 391.65,-378.73"/>
</g>
<!-- Logic&#45;&gt;IndProp -->
<g id="edge6" class="edge">
<title>Logic&#45;&gt;IndProp</title>
<path fill="none" stroke="gray" d="M278.9,-486.74C278.34,-479.36 278.15,-470.96 278.35,-462.91"/>
<polygon fill="gray" stroke="gray" points="281.84,-463.21 278.84,-453.06 274.85,-462.87 281.84,-463.21"/>
</g>
<!-- Logic&#45;&gt;IndProp -->
<g id="edge25" class="edge">
<title>Logic&#45;&gt;IndProp</title>
<path fill="none" stroke="blue" d="M291.15,-486.74C291.71,-479.36 291.9,-470.96 291.7,-462.91"/>
<polygon fill="blue" stroke="blue" points="295.2,-462.87 291.21,-453.06 288.21,-463.21 295.2,-462.87"/>
</g>
<!-- Imp -->
<g id="node15" class="node">
<title>Imp</title>
<g id="a_node15"><a xlink:href="Imp.html" xlink:title="Go to chapter" target="_top">
<polygon fill="lightblue" stroke="black" points="138.05,-288.8 0,-288.8 0,-243.6 138.05,-243.6 138.05,-288.8"/>
<text xml:space="preserve" text-anchor="start" x="60.4" y="-270.75" font-family="Times,serif" font-size="11.00">Imp</text>
<text xml:space="preserve" text-anchor="start" x="18.4" y="-253.15" font-family="Times,serif" font-size="9.00">Simple Imperative Programs</text>
</a>
</g>
</g>
<!-- Maps&#45;&gt;Imp -->
<g id="edge8" class="edge">
<title>Maps&#45;&gt;Imp</title>
<path fill="none" stroke="gray" d="M83.1,-324.34C79.86,-316.79 76.63,-308.17 73.95,-299.95"/>
<polygon fill="gray" stroke="gray" points="77.36,-299.15 71.11,-290.59 70.66,-301.18 77.36,-299.15"/>
</g>
<!-- Maps&#45;&gt;Imp -->
<g id="edge27" class="edge">
<title>Maps&#45;&gt;Imp</title>
<path fill="none" stroke="blue" d="M95.35,-324.34C93.23,-316.7 90.32,-307.97 87.16,-299.67"/>
<polygon fill="blue" stroke="blue" points="90.46,-298.5 83.46,-290.55 83.97,-301.13 90.46,-298.5"/>
</g>
<!-- CurryHoward -->
<g id="node13" class="node">
<title>CurryHoward</title>
<g id="a_node13"><a xlink:href="CurryHoward.html" xlink:title="Go to chapter" target="_top">
<polygon fill="lightblue" stroke="black" points="414.05,-288.8 156,-288.8 156,-243.6 414.05,-243.6 414.05,-288.8"/>
<text xml:space="preserve" text-anchor="start" x="254.27" y="-270.75" font-family="Times,serif" font-size="11.00">CurryHoward</text>
<text xml:space="preserve" text-anchor="start" x="174.4" y="-253.15" font-family="Times,serif" font-size="9.00">A Formal Development of the Curry&#45;Howard Correspondence</text>
</a>
</g>
</g>
<!-- ProofObjects&#45;&gt;CurryHoward -->
<g id="edge11" class="edge">
<title>ProofObjects&#45;&gt;CurryHoward</title>
<path fill="none" stroke="gray" d="M285.02,-324.34C285.02,-316.96 285.02,-308.56 285.02,-300.51"/>
<polygon fill="gray" stroke="gray" points="288.53,-300.66 285.03,-290.66 281.53,-300.66 288.53,-300.66"/>
</g>
<!-- IndPrinciples -->
<g id="node14" class="node">
<title>IndPrinciples</title>
<g id="a_node14"><a xlink:href="IndPrinciples.html" xlink:title="Go to chapter" target="_top">
<polygon fill="lightblue" stroke="black" points="535.8,-288.8 432.25,-288.8 432.25,-243.6 535.8,-243.6 535.8,-288.8"/>
<text xml:space="preserve" text-anchor="start" x="454.77" y="-270.75" font-family="Times,serif" font-size="11.00">IndPrinciples</text>
<text xml:space="preserve" text-anchor="start" x="450.65" y="-253.15" font-family="Times,serif" font-size="9.00">More on Induction</text>
</a>
</g>
</g>
<!-- ProofObjects&#45;&gt;IndPrinciples -->
<g id="edge10" class="edge">
<title>ProofObjects&#45;&gt;IndPrinciples</title>
<path fill="none" stroke="gray" d="M340.46,-324.34C365.63,-314.32 395.51,-302.43 421.48,-292.09"/>
<polygon fill="gray" stroke="gray" points="422.56,-295.43 430.56,-288.48 419.97,-288.92 422.56,-295.43"/>
</g>
<!-- ImpParser -->
<g id="node16" class="node">
<title>ImpParser</title>
<g id="a_node16"><a xlink:href="ImpParser.html" xlink:title="Go to chapter" target="_top">
<polygon fill="lightblue" stroke="black" points="135.93,-207.6 0.12,-207.6 0.12,-162.4 135.93,-162.4 135.93,-207.6"/>
<text xml:space="preserve" text-anchor="start" x="45.15" y="-189.55" font-family="Times,serif" font-size="11.00">ImpParser</text>
<text xml:space="preserve" text-anchor="start" x="18.53" y="-171.95" font-family="Times,serif" font-size="9.00">Lexing and Parsing in Rocq</text>
</a>
</g>
</g>
<!-- Imp&#45;&gt;ImpParser -->
<g id="edge16" class="edge">
<title>Imp&#45;&gt;ImpParser</title>
<path fill="none" stroke="gray" d="M68.75,-243.14C68.65,-235.76 68.55,-227.36 68.45,-219.31"/>
<polygon fill="gray" stroke="gray" points="71.95,-219.41 68.32,-209.46 64.95,-219.5 71.95,-219.41"/>
</g>
<!-- ImpCEvalFun -->
<g id="node17" class="node">
<title>ImpCEvalFun</title>
<g id="a_node17"><a xlink:href="ImpCEvalFun.html" xlink:title="Go to chapter" target="_top">
<polygon fill="lightblue" stroke="black" points="304.43,-207.6 153.62,-207.6 153.62,-162.4 304.43,-162.4 304.43,-207.6"/>
<text xml:space="preserve" text-anchor="start" x="198.28" y="-189.55" font-family="Times,serif" font-size="11.00">ImpCEvalFun</text>
<text xml:space="preserve" text-anchor="start" x="172.03" y="-171.95" font-family="Times,serif" font-size="9.00">An Evaluation Function for Imp</text>
</a>
</g>
</g>
<!-- Imp&#45;&gt;ImpCEvalFun -->
<g id="edge18" class="edge">
<title>Imp&#45;&gt;ImpCEvalFun</title>
<path fill="none" stroke="gray" d="M113.59,-243.14C132.41,-233.82 154.51,-222.88 174.31,-213.09"/>
<polygon fill="gray" stroke="gray" points="175.65,-216.33 183.06,-208.75 172.55,-210.05 175.65,-216.33"/>
</g>
<!-- Auto -->
<g id="node20" class="node">
<title>Auto</title>
<g id="a_node20"><a xlink:href="Auto.html" xlink:title="Go to chapter" target="_top">
<polygon fill="lightblue" stroke="black" points="421.92,-207.6 322.12,-207.6 322.12,-162.4 421.92,-162.4 421.92,-207.6"/>
<text xml:space="preserve" text-anchor="start" x="361.15" y="-189.55" font-family="Times,serif" font-size="11.00">Auto</text>
<text xml:space="preserve" text-anchor="start" x="340.52" y="-171.95" font-family="Times,serif" font-size="9.00">More Automation</text>
</a>
</g>
</g>
<!-- Imp&#45;&gt;Auto -->
<g id="edge13" class="edge">
<title>Imp&#45;&gt;Auto</title>
<path fill="none" stroke="gray" d="M138.45,-243.49C211.4,-225.53 231.66,-228.59 304.02,-207.6 306.28,-206.95 308.56,-206.25 310.87,-205.53"/>
<polygon fill="gray" stroke="gray" points="311.92,-208.87 320.33,-202.42 309.74,-202.21 311.92,-208.87"/>
</g>
<!-- Imp&#45;&gt;Auto -->
<g id="edge28" class="edge">
<title>Imp&#45;&gt;Auto</title>
<path fill="none" stroke="blue" d="M138.36,-248.12C144.35,-246.54 150.3,-245.01 156.03,-243.6 225.32,-226.51 247.16,-228.35 310.6,-210.83"/>
<polygon fill="blue" stroke="blue" points="311.48,-214.23 320.14,-208.13 309.57,-207.49 311.48,-214.23"/>
</g>
<!-- Extraction -->
<g id="node21" class="node">
<title>Extraction</title>
<g id="a_node21"><a xlink:href="Extraction.html" xlink:title="Go to chapter" target="_top">
<polygon fill="lightblue" stroke="black" points="134.8,-126.4 1.25,-126.4 1.25,-81.2 134.8,-81.2 134.8,-126.4"/>
<text xml:space="preserve" text-anchor="start" x="45.15" y="-108.35" font-family="Times,serif" font-size="11.00">Extraction</text>
<text xml:space="preserve" text-anchor="start" x="19.65" y="-90.75" font-family="Times,serif" font-size="9.00">Extracting ML From Stdlib</text>
</a>
</g>
</g>
<!-- ImpParser&#45;&gt;Extraction -->
<g id="edge17" class="edge">
<title>ImpParser&#45;&gt;Extraction</title>
<path fill="none" stroke="gray" d="M68.03,-161.94C68.03,-154.56 68.03,-146.16 68.03,-138.11"/>
<polygon fill="gray" stroke="gray" points="71.53,-138.26 68.03,-128.26 64.53,-138.26 71.53,-138.26"/>
</g>
<!-- Auto&#45;&gt;Postscript -->
<g id="edge14" class="edge">
<title>Auto&#45;&gt;Postscript</title>
<path fill="none" stroke="gray" d="M365.9,-161.94C365.23,-153.12 365.1,-142.85 365.51,-133.47"/>
<polygon fill="gray" stroke="gray" points="368.98,-133.97 366.21,-123.74 362,-133.46 368.98,-133.97"/>
</g>
<!-- Auto&#45;&gt;Postscript -->
<g id="edge29" class="edge">
<title>Auto&#45;&gt;Postscript</title>
<path fill="none" stroke="blue" d="M378.15,-161.94C378.82,-153.12 378.95,-142.85 378.54,-133.47"/>
<polygon fill="blue" stroke="blue" points="382.05,-133.46 377.84,-123.74 375.07,-133.97 382.05,-133.46"/>
</g>
</g>
</svg>
